<?xml version="1.0" encoding="UTF-8"?>
<svg id="Layer_2" data-name="Layer 2" xmlns="http://www.w3.org/2000/svg" viewBox="0 0 370.19 67.55">
  <defs>
    <style>
      .cls-1 {
        fill: #00a0a8;
      }
    </style>
  </defs>
  <g id="Layer_1-2" data-name="Layer 1">
    <g>
      <g>
        <path d="m79.18,52.61v-10.02h3.69l.04.63c.07,1.17.11,2.05.11,2.64,0,1.85.76,3.25,2.29,4.18,2.48,1.55,5.23,2.32,8.23,2.32s5.55-.88,7.31-2.65c1.76-1.77,2.64-4.21,2.64-7.33,0-2.62-.56-4.71-1.69-6.26s-3.32-3.23-6.57-5.06l-3.69-2.11c-7.97-4.5-11.95-9.41-11.95-14.73,0-4.01,1.44-7.32,4.31-9.95,2.87-2.62,6.47-3.94,10.81-3.94,1.88,0,3.91.18,6.1.54,2.19.36,4.54.92,7.05,1.67v9.25h-3.9l-.03-.6c-.08-1.27-.11-2.19-.11-2.78,0-1.97-.7-3.42-2.11-4.34-1.41-.93-3.62-1.39-6.62-1.39-2.51,0-4.55.83-6.11,2.48s-2.34,3.83-2.34,6.52c0,2.3.54,4.2,1.62,5.7,1.08,1.5,3.02,3.05,5.84,4.64l3.69,2.11c5.11,2.91,8.55,5.44,10.34,7.59,1.78,2.16,2.67,4.86,2.67,8.12,0,4.34-1.61,7.94-4.83,10.81-3.22,2.87-7.25,4.31-12.08,4.31-2.81,0-5.44-.2-7.89-.6-2.45-.4-4.71-.98-6.77-1.76Z"/>
        <path d="m150.28,51.95c-4.41,1.73-8.43,2.6-12.06,2.6-5.6,0-10.15-1.89-13.66-5.67-3.5-3.78-5.26-8.68-5.26-14.71s1.57-10.42,4.71-14.07c3.14-3.66,7.17-5.49,12.09-5.49,4.55,0,8.04,1.53,10.49,4.6,2.45,3.06,3.67,7.44,3.67,13.12v.67h-23.31c0,5.95,1.04,10.45,3.11,13.48s5.15,4.55,9.23,4.55c4.29,0,7.95-.88,10.97-2.64v3.55Zm-23.17-21.09h15.82l.04-1.55c0-4.43-.57-7.63-1.72-9.6-1.15-1.97-3.02-2.95-5.62-2.95s-4.67,1.28-6.21,3.83c-1.54,2.55-2.3,5.98-2.3,10.27Z"/>
        <path d="m170.5,25.89v18.67c0,3.16.28,5.06.83,5.7.55.63,2.23,1.03,5.04,1.2l1.51.04v2.18h-20.81v-2.18l.67-.04c2.84-.19,4.52-.59,5.04-1.21.53-.62.79-2.51.79-5.68v-19.97c0-3.16-.26-5.05-.79-5.66-.53-.61-2.21-1.02-5.04-1.23l-.67-.04v-2.18h13.43v7.17c3.16-5.37,7.3-8.05,12.41-8.05.7,0,1.49.13,2.36.39v10.44h-3.9l-.04-.63c-.26-2.18-.49-3.47-.69-3.88-.2-.41-.73-.62-1.6-.62-3.47,0-6.32,1.86-8.54,5.59Z"/>
        <path d="m223.7,51.95c-4.41,1.73-8.43,2.6-12.06,2.6-5.6,0-10.15-1.89-13.66-5.67-3.5-3.78-5.26-8.68-5.26-14.71s1.57-10.42,4.71-14.07c3.14-3.66,7.17-5.49,12.09-5.49,4.55,0,8.04,1.53,10.49,4.6,2.45,3.06,3.67,7.44,3.67,13.12v.67h-23.31c0,5.95,1.04,10.45,3.11,13.48s5.15,4.55,9.23,4.55c4.29,0,7.95-.88,10.97-2.64v3.55Zm-23.17-21.09h15.82l.04-1.55c0-4.43-.57-7.63-1.72-9.6-1.15-1.97-3.02-2.95-5.62-2.95s-4.67,1.28-6.21,3.83c-1.54,2.55-2.3,5.98-2.3,10.27Z"/>
        <path d="m243.92,22.63c1.76-2.67,3.78-4.68,6.08-6.01,2.3-1.34,4.86-2,7.7-2,3.28,0,5.86,1.08,7.73,3.24,1.85,2.16,2.78,5.13,2.78,8.9v17.81c.16,3.49.43,5.46.81,5.91.37.45,2.06.77,5.06.98l.63.04v2.18h-19.93v-2.18l.63-.04c3-.21,4.69-.54,5.06-.98.37-.44.64-2.41.81-5.91v-16.72c0-3.29-.43-5.57-1.28-6.85-.86-1.28-2.39-1.92-4.59-1.92-1.55,0-3.28.49-5.2,1.46-1.92.97-4.02,2.45-6.29,4.42v19.61c0,3.19.26,5.09.77,5.7.51.61,2.2,1.01,5.07,1.2l.66.04v2.18h-19.93v-2.18l.67-.04c2.84-.19,4.52-.59,5.04-1.21.53-.62.79-2.51.79-5.68v-19.97c0-3.16-.26-5.05-.79-5.66-.53-.61-2.21-1.02-5.04-1.23l-.67-.04v-2.18h13.43v7.14Z"/>
        <path d="m291.25,15.49v29.07c0,3.19.26,5.09.77,5.7.51.61,2.2,1.01,5.07,1.2l.66.04v2.18h-19.93v-2.18l.67-.04c2.84-.19,4.52-.59,5.04-1.21.53-.62.79-2.51.79-5.68v-19.97c0-3.16-.26-5.05-.79-5.66-.53-.61-2.21-1.02-5.04-1.23l-.67-.04v-2.18h13.43Zm-6.93-6.93V1.64h6.93v6.93h-6.93Z"/>
        <path d="m325.78,53.46c-1.76.73-3.43,1.09-5.03,1.09-4.06,0-7.01-1.02-8.88-3.06s-2.79-5.29-2.79-9.74v-23.41h-5.62v-2.85h5.62v-6.93l6.93-1.72v8.65h10.65v2.85h-10.65v24.33c0,3.28.44,5.61,1.31,7,.87,1.38,2.35,2.07,4.45,2.07,1.1,0,2.45-.36,4.02-1.09v2.81Z"/>
        <path d="m336.26,67.55l12.53-13.89-12.04-28.93c-1.27-3.09-2.2-5.02-2.81-5.78-.61-.76-1.55-1.18-2.81-1.25l-.7-.04v-2.18h17.46v2.18h-.74c-3.19,0-4.78.42-4.78,1.26,0,.42.67,2.35,2,5.79l8.53,20.5,9.15-20.6c1.34-3.02,2-4.84,2-5.45,0-1.01-1.42-1.51-4.25-1.51h-.95v-2.18h11.33v2.18l-.67.04c-1.45.09-2.7,1.42-3.73,3.97-.19.45-.64,1.45-1.34,3.02l-19.46,42.86h-8.73Z"/>
      </g>
      <g>
        <g>
          <path d="m7.93,25.19c-5.32-5.32-5.77-13.48-1.01-18.24h0c4.76-4.76,12.92-4.3,18.24,1.01l4.5,21.5"/>
          <path d="m24.39,7.96C27.56,1.19,35.35-1.85,41.78,1.16h0c6.43,3.01,9.07,10.95,5.9,17.72l-19.25,11.16"/>
          <path d="m44.04,44.56c.97,7.51-3.9,14.33-10.89,15.23h0c-6.98.9-13.43-4.46-14.4-11.97l10.11-19.97"/>
          <path d="m48.01,18.32c7.27,1.19,12.2,8.08,11.01,15.39h0c-1.19,7.31-8.06,12.27-15.33,11.09l-15.64-15.97"/>
          <path d="m18.59,48.8c-6.8,2.97-14.65.04-17.53-6.54h0c-2.88-6.59.3-14.33,7.1-17.31l21.77,4.5"/>
        </g>
        <g>
          <path class="cls-1" d="m17.13,27.27c-3.07-3.04-3.35-7.74-.63-10.48h0c2.72-2.75,7.42-2.5,10.49.54l2.63,12.35"/>
          <path class="cls-1" d="m26.54,17.33c1.81-3.9,6.28-5.67,9.98-3.95h0c3.7,1.72,5.24,6.27,3.43,10.17l-11.04,6.46"/>
          <path class="cls-1" d="m37.92,38.32c.57,4.32-2.21,8.25-6.22,8.78h0c-4.01.53-7.73-2.53-8.3-6.85l5.76-11.5"/>
          <path class="cls-1" d="m40.14,23.23c4.18.67,7.03,4.61,6.36,8.82h0c-.67,4.2-4.6,7.07-8.79,6.41l-9.03-9.14"/>
          <path class="cls-1" d="m23.3,40.82c-3.9,1.72-8.42.06-10.09-3.72h0c-1.67-3.78.14-8.24,4.04-9.96l12.52,2.54"/>
        </g>
      </g>
    </g>
  </g>
</svg>